{
  "accessors": [
    {
      "bufferView": 1,
      "componentType": 5126,
      "count": 38,
      "max": [
        1.2465497255325317,
        1.5336171388626099,
        2.869567394256592
      ],
      "min": [
        -1.2465497255325317,
        0.6754881739616394,
        -0.9475840330123901
      ],
      "type": "VEC3"
    },
    {
      "bufferView": 1,
      "byteOffset": 456,
      "componentType": 5126,
      "count": 38,
      "max": [
        0.9922695755958557,
        0.5464985370635986,
        0.9787445664405823
      ],
      "min": [
        -0.9922695755958557,
        0.12410155683755875,
        -0.8412221074104309
      ],
      "type": "VEC3"
    },
    {
      "bufferView": 0,
      "componentType": 5125,
      "count": 60,
      "type": "SCALAR"
    },
    {
      "bufferView": 1,
      "byteOffset": 912,
      "componentType": 5126,
      "count": 416,
      "max": [
        1.1437755823135376,
        0.4000144898891449,
        2.5289993286132813
      ],
      "min": [
        -1.1437755823135376,
        -0.1173570454120636,
        2.313277244567871
      ],
      "type": "VEC3"
    },
    {
      "bufferView": 1,
      "byteOffset": 5904,
      "componentType": 5126,
      "count": 416,
      "max": [
        0.8491613864898682,
        0.8139539957046509,
        0.8380425572395325
      ],
      "min": [
        -0.8491613864898682,
        -0.8136450052261353,
        -0.8380435705184937
      ],
      "type": "VEC3"
    },
    {
      "bufferView": 0,
      "byteOffset": 240,
      "componentType": 5125,
      "count": 624,
      "type": "SCALAR"
    },
    {
      "bufferView": 1,
      "byteOffset": 10896,
      "componentType": 5126,
      "count": 1131,
      "max": [
        1.2551331520080566,
        1.7719640731811523,
        2.8781862258911133
      ],
      "min": [
        -1.2551331520080566,
        -0.6199401617050171,
        -2.90934419631958
      ],
      "type": "VEC3"
    },
    {
      "bufferView": 1,
      "byteOffset": 24468,
      "componentType": 5126,
      "count": 1131,
      "max": [
        1.0,
        0.9999729990959167,
        1.0
      ],
      "min": [
        -1.0,
        -1.0,
        -0.9977461099624634
      ],
      "type": "VEC3"
    },
    {
      "bufferView": 0,
      "byteOffset": 2736,
      "componentType": 5125,
      "count": 1842,
      "type": "SCALAR"
    },
    {
      "bufferView": 1,
      "byteOffset": 38040,
      "componentType": 5126,
      "count": 176,
      "max": [
        46.84797668457031,
        1.0838829278945923,
        0.9999935030937195
      ],
      "min": [
        -1.0,
        -1.0044454336166382,
        -1.0386813879013062
      ],
      "type": "VEC3"
    },
    {
      "bufferView": 1,
      "byteOffset": 40152,
      "componentType": 5126,
      "count": 176,
      "max": [
        1.0,
        0.9999998807907104,
        0.9786149859428406
      ],
      "min": [
        -1.0,
        -0.9999998807907104,
        -1.0
      ],
      "type": "VEC3"
    },
    {
      "bufferView": 0,
      "byteOffset": 10104,
      "componentType": 5125,
      "count": 288,
      "type": "SCALAR"
    },
    {
      "bufferView": 1,
      "byteOffset": 42264,
      "componentType": 5126,
      "count": 160,
      "max": [
        1.0291693210601807,
        1.847524642944336,
        1.0
      ],
      "min": [
        -13.697835922241211,
        -1.0486524105072021,
        -1.000000238418579
      ],
      "type": "VEC3"
    },
    {
      "bufferView": 1,
      "byteOffset": 44184,
      "componentType": 5126,
      "count": 160,
      "max": [
        0.9126303791999817,
        0.9998823404312134,
        0.9215353727340698
      ],
      "min": [
        -0.9126303195953369,
        -0.9998822808265686,
        -0.9215353727340698
      ],
      "type": "VEC3"
    },
    {
      "bufferView": 0,
      "byteOffset": 11256,
      "componentType": 5125,
      "count": 264,
      "type": "SCALAR"
    },
    {
      "bufferView": 1,
      "byteOffset": 46104,
      "componentType": 5126,
      "count": 48,
      "max": [
        1.0,
        1.0,
        1.0
      ],
      "min": [
        -9.519807815551758,
        -1.000000238418579,
        -1.0
      ],
      "type": "VEC3"
    },
    {
      "bufferView": 1,
      "byteOffset": 46680,
      "componentType": 5126,
      "count": 48,
      "max": [
        1.0,
        1.0,
        1.0
      ],
      "min": [
        -1.0,
        -1.0,
        -1.0
      ],
      "type": "VEC3"
    },
    {
      "bufferView": 0,
      "byteOffset": 12312,
      "componentType": 5125,
      "count": 72,
      "type": "SCALAR"
    },
    {
      "bufferView": 1,
      "byteOffset": 47256,
      "componentType": 5126,
      "count": 164,
      "max": [
        3.322050094604492,
        1.1344462633132935,
        2.224780559539795
      ],
      "min": [
        -3.322050094604492,
        -1.4379702806472778,
        0.3156129717826843
      ],
      "type": "VEC3"
    },
    {
      "bufferView": 1,
      "byteOffset": 49224,
      "componentType": 5126,
      "count": 164,
      "max": [
        1.0,
        1.0,
        1.0
      ],
      "min": [
        -1.0,
        -1.0,
        -0.9832003116607666
      ],
      "type": "VEC3"
    },
    {
      "bufferView": 0,
      "byteOffset": 12600,
      "componentType": 5125,
      "count": 300,
      "type": "SCALAR"
    },
    {
      "bufferView": 1,
      "byteOffset": 51192,
      "componentType": 5126,
      "count": 240,
      "max": [
        1.2810449600219727,
        0.7376565337181091,
        12.508074760437012
      ],
      "min": [
        -91.52688598632813,
        -1.2416378259658813,
        -13.163515090942383
      ],
      "type": "VEC3"
    },
    {
      "bufferView": 1,
      "byteOffset": 54072,
      "componentType": 5126,
      "count": 240,
      "max": [
        1.0,
        1.0,
        0.35833150148391724
      ],
      "min": [
        -1.0,
        -1.0,
        -0.34993162751197815
      ],
      "type": "VEC3"
    },
    {
      "bufferView": 0,
      "byteOffset": 13800,
      "componentType": 5125,
      "count": 360,
      "type": "SCALAR"
    },
    {
      "bufferView": 1,
      "byteOffset": 56952,
      "componentType": 5126,
      "count": 216,
      "max": [
        1.2836856842041016,
        0.7224915027618408,
        13.843815803527832
      ],
      "min": [
        -91.52424621582031,
        -1.2637239694595337,
        -12.979259490966797
      ],
      "type": "VEC3"
    },
    {
      "bufferView": 1,
      "byteOffset": 59544,
      "componentType": 5126,
      "count": 216,
      "max": [
        1.0,
        1.0,
        0.25829166173934937
      ],
      "min": [
        -1.0,
        -1.0,
        -0.25468719005584717
      ],
      "type": "VEC3"
    },
    {
      "bufferView": 0,
      "byteOffset": 15240,
      "componentType": 5125,
      "count": 360,
      "type": "SCALAR"
    },
    {
      "bufferView": 1,
      "byteOffset": 62136,
      "componentType": 5126,
      "count": 152,
      "max": [
        0.27741652727127075,
        1.7899250984191895,
        0.3481798768043518
      ],
      "min": [
        -2.3131673336029053,
        -0.7561603784561157,
        -0.272210031747818
      ],
      "type": "VEC3"
    },
    {
      "bufferView": 1,
      "byteOffset": 63960,
      "componentType": 5126,
      "count": 152,
      "max": [
        1.0,
        1.0,
        0.9999469518661499
      ],
      "min": [
        -1.0,
        -0.944868803024292,
        -0.999991238117218
      ],
      "type": "VEC3"
    },
    {
      "bufferView": 0,
      "byteOffset": 16680,
      "componentType": 5125,
      "count": 240,
      "type": "SCALAR"
    }
  ],
  "asset": {
    "extras": {
      "author": "mudroljub (https://sketchfab.com/mudroljub)",
      "license": "CC-BY-4.0 (http://creativecommons.org/licenses/by/4.0/)",
      "source": "https://sketchfab.com/3d-models/jeep-a1b92c13143e46c3809beb22f11b0638",
      "title": "Jeep"
    },
    "generator": "Sketchfab-13.72.0",
    "version": "2.0"
  },
  "bufferViews": [
    {
      "buffer": 0,
      "byteLength": 17640,
      "name": "floatBufferViews",
      "target": 34963
    },
    {
      "buffer": 0,
      "byteLength": 65784,
      "byteOffset": 17640,
      "byteStride": 12,
      "name": "floatBufferViews",
      "target": 34962
    }
  ],
  "buffers": [
    {
      "byteLength": 83424,
      "uri": "scene.bin"
    }
  ],
  "materials": [
    {
      "doubleSided": true,
      "name": "material_0",
      "pbrMetallicRoughness": {
        "metallicFactor": 0.0,
        "roughnessFactor": 0.6
      }
    },
    {
      "name": "Material",
      "pbrMetallicRoughness": {
        "baseColorFactor": [
          0.64,
          0.64,
          0.64,
          1.0
        ],
        "metallicFactor": 0.0
      }
    }
  ],
  "meshes": [
    {
      "name": "Object_0",
      "primitives": [
        {
          "attributes": {
            "NORMAL": 1,
            "POSITION": 0
          },
          "indices": 2,
          "material": 1,
          "mode": 4
        }
      ]
    },
    {
      "name": "Object_1",
      "primitives": [
        {
          "attributes": {
            "NORMAL": 4,
            "POSITION": 3
          },
          "indices": 5,
          "material": 0,
          "mode": 4
        }
      ]
    },
    {
      "name": "Object_2",
      "primitives": [
        {
          "attributes": {
            "NORMAL": 7,
            "POSITION": 6
          },
          "indices": 8,
          "material": 1,
          "mode": 4
        }
      ]
    },
    {
      "name": "Object_3",
      "primitives": [
        {
          "attributes": {
            "NORMAL": 10,
            "POSITION": 9
          },
          "indices": 11,
          "material": 0,
          "mode": 4
        }
      ]
    },
    {
      "name": "Object_4",
      "primitives": [
        {
          "attributes": {
            "NORMAL": 13,
            "POSITION": 12
          },
          "indices": 14,
          "material": 0,
          "mode": 4
        }
      ]
    },
    {
      "name": "Object_5",
      "primitives": [
        {
          "attributes": {
            "NORMAL": 16,
            "POSITION": 15
          },
          "indices": 17,
          "material": 0,
          "mode": 4
        }
      ]
    },
    {
      "name": "Object_6",
      "primitives": [
        {
          "attributes": {
            "NORMAL": 19,
            "POSITION": 18
          },
          "indices": 20,
          "material": 0,
          "mode": 4
        }
      ]
    },
    {
      "name": "Object_7",
      "primitives": [
        {
          "attributes": {
            "NORMAL": 22,
            "POSITION": 21
          },
          "indices": 23,
          "material": 0,
          "mode": 4
        }
      ]
    },
    {
      "name": "Object_8",
      "primitives": [
        {
          "attributes": {
            "NORMAL": 25,
            "POSITION": 24
          },
          "indices": 26,
          "material": 0,
          "mode": 4
        }
      ]
    },
    {
      "name": "Object_9",
      "primitives": [
        {
          "attributes": {
            "NORMAL": 28,
            "POSITION": 27
          },
          "indices": 29,
          "material": 0,
          "mode": 4
        }
      ]
    }
  ],
  "nodes": [
    {
      "children": [
        1
      ],
      "matrix": [
        1.0,
        0.0,
        0.0,
        0.0,
        0.0,
        2.220446049250313e-16,
        -1.0,
        0.0,
        0.0,
        1.0,
        2.220446049250313e-16,
        0.0,
        0.0,
        0.0,
        0.0,
        1.0
      ],
      "name": "Sketchfab_model"
    },
    {
      "children": [
        2
      ],
      "name": "root"
    },
    {
      "children": [
        3,
        5,
        7,
        9,
        11,
        13,
        15,
        17,
        19,
        21
      ],
      "matrix": [
        1.0,
        0.0,
        0.0,
        0.0,
        0.0,
        2.220446049250313e-16,
        1.0,
        0.0,
        0.0,
        -1.0,
        2.220446049250313e-16,
        0.0,
        0.0,
        0.0,
        0.0,
        1.0
      ],
      "name": "GLTF_SceneRootNode"
    },
    {
      "children": [
        4
      ],
      "matrix": [
        1.0,
        0.0,
        0.0,
        0.0,
        0.0,
        1.0,
        0.0,
        0.0,
        0.0,
        0.0,
        1.0,
        0.0,
        0.0,
        0.0,
        -0.7000001668930054,
        1.0
      ],
      "name": "glass_4"
    },
    {
      "mesh": 0,
      "name": "Object_4"
    },
    {
      "children": [
        6
      ],
      "matrix": [
        1.0,
        0.0,
        0.0,
        0.0,
        0.0,
        1.0,
        0.0,
        0.0,
        0.0,
        0.0,
        1.0,
        0.0,
        0.0,
        0.0,
        -6.054169654846191,
        1.0
      ],
      "name": "brushGuard_0"
    },
    {
      "mesh": 1,
      "name": "Object_6"
    },
    {
      "children": [
        8
      ],
      "matrix": [
        1.0,
        0.0,
        0.0,
        0.0,
        0.0,
        1.0,
        0.0,
        0.0,
        0.0,
        0.0,
        1.0,
        0.0,
        0.0,
        0.0,
        -0.7000001668930054,
        1.0
      ],
      "name": "chassis_1"
    },
    {
      "mesh": 2,
      "name": "Object_8"
    },
    {
      "children": [
        10
      ],
      "matrix": [
        -0.02864077500998974,
        -0.0,
        0.0,
        -0.0,
        -0.0,
        -0.24841993869554066,
        -0.013186475308567628,
        -0.0,
        -0.0,
        0.0015181548111834026,
        -0.028600510469957235,
        -0.0,
        0.6565607786178589,
        0.11406007409095764,
        -3.5937182903289795,
        1.0
      ],
      "name": "grill_5"
    },
    {
      "mesh": 3,
      "name": "Object_10"
    },
    {
      "children": [
        12
      ],
      "matrix": [
        0.1422556863870444,
        7.533108181000175e-10,
        0.016696505243764228,
        0.0,
        -0.016696505243764228,
        -4.405674371276989e-11,
        0.14225568638704442,
        0.0,
        7.533108181000175e-10,
        -0.14323216676712036,
        4.405671190884001e-11,
        0.0,
        0.900963544845581,
        0.14087016880512238,
        -3.4062116146087646,
        1.0
      ],
      "name": "head_lights_6"
    },
    {
      "mesh": 4,
      "name": "Object_12"
    },
    {
      "children": [
        14
      ],
      "matrix": [
        0.237566739320755,
        0.0,
        0.0,
        0.0,
        0.0,
        0.09566176682710648,
        0.0,
        0.0,
        0.0,
        0.0,
        0.03718196228146553,
        0.0,
        1.0120114088058472,
        -0.13479870557785034,
        2.185123920440674,
        1.0
      ],
      "name": "tail_lights_9"
    },
    {
      "mesh": 5,
      "name": "Object_14"
    },
    {
      "children": [
        16
      ],
      "matrix": [
        0.3732348680496216,
        0.0,
        0.0,
        0.0,
        0.0,
        0.3732348680496216,
        0.0,
        0.0,
        0.0,
        0.0,
        0.3732348680496216,
        0.0,
        0.0,
        0.0,
        -3.9517390727996826,
        1.0
      ],
      "name": "front_bumper_2"
    },
    {
      "mesh": 6,
      "name": "Object_16"
    },
    {
      "children": [
        18
      ],
      "matrix": [
        0.027766453102231026,
        0.0,
        0.0,
        -0.0,
        -0.0,
        0.41912853717803955,
        0.0,
        -0.0,
        -0.0,
        0.0,
        -0.0660998672246933,
        -0.0,
        1.2529034614562988,
        -0.10057887434959412,
        -2.521653175354004,
        1.0
      ],
      "name": "front_fender_3"
    },
    {
      "mesh": 7,
      "name": "Object_18"
    },
    {
      "children": [
        20
      ],
      "matrix": [
        0.027766453102231026,
        0.0,
        0.0,
        0.0,
        0.0,
        0.41912853717803955,
        0.0,
        0.0,
        0.0,
        0.0,
        0.0660998672246933,
        0.0,
        1.252830147743225,
        -0.08459366858005524,
        1.029364824295044,
        1.0
      ],
      "name": "rear_fender_8"
    },
    {
      "mesh": 8,
      "name": "Object_20"
    },
    {
      "children": [
        22
      ],
      "matrix": [
        1.0,
        0.0,
        0.0,
        0.0,
        0.0,
        0.12677395343780518,
        0.0,
        0.0,
        0.0,
        0.0,
        1.0,
        0.0,
        1.01787531375885,
        -0.5022205114364624,
        1.986886739730835,
        1.0
      ],
      "name": "rear_bumper_7"
    },
    {
      "mesh": 9,
      "name": "Object_22"
    }
  ],
  "scene": 0,
  "scenes": [
    {
      "name": "Sketchfab_Scene",
      "nodes": [
        0
      ]
    }
  ]
}
